<svg width="120" height="50" viewBox="0 0 172 72" fill="none" xmlns="http://www.w3.org/2000/svg">
<path d="M119.554 36C119.554 55.5798 102.749 71.5 81.9597 71.5C61.1701 71.5 44.3658 55.5798 44.3658 36C44.3658 16.4201 61.1701 0.5 81.9597 0.5C102.749 0.5 119.554 16.4201 119.554 36Z" fill="black" stroke="black"/>
<ellipse cx="82.537" cy="9.27276" rx="8.65768" ry="8.18182" fill="white"/>
<ellipse cx="64.0671" cy="54.0001" rx="8.65773" ry="8.18182" fill="white"/>
<ellipse cx="101.007" cy="18.0001" rx="8.65772" ry="8.18182" fill="white"/>
<ellipse cx="53.6779" cy="36.5455" rx="8.65772" ry="8.18182" fill="white"/>
<ellipse cx="82.537" cy="62.7272" rx="8.65768" ry="8.18182" fill="white"/>
<ellipse cx="110.242" cy="36.5455" rx="8.65772" ry="8.18182" fill="white"/>
<ellipse cx="81.9598" cy="36" rx="5.7718" ry="5.45454" fill="white"/>
<path d="M10.3893 5.77271L0.889267 5.77271L0.889267 24.7727L10.3893 24.7727L10.3893 5.77271ZM63.4899 24.7727C68.7366 24.7727 72.9899 20.5194 72.9899 15.2727C72.9899 10.026 68.7366 5.77271 63.4899 5.77271L63.4899 24.7727ZM10.3893 24.7727L63.4899 24.7727L63.4899 5.77271L10.3893 5.77271L10.3893 24.7727Z" fill="white"/>
<path d="M35.012 12.72H36.248V12.864C36.088 12.944 35.996 13.088 35.972 13.296C35.956 13.504 35.948 13.74 35.948 14.004C35.948 14.988 35.956 15.952 35.972 16.896C35.996 17.832 36.06 18.792 36.164 19.776C36.18 19.952 36.248 20.108 36.368 20.244C36.496 20.38 36.66 20.448 36.86 20.448C36.94 20.448 37.044 20.44 37.172 20.424C37.308 20.4 37.428 20.384 37.532 20.376V20.664C37.268 20.76 36.988 20.852 36.692 20.94C36.404 21.028 36.14 21.072 35.9 21.072C35.724 21.072 35.552 21.04 35.384 20.976C35.224 20.912 35.144 20.804 35.144 20.652V18.468C35.144 18.404 35.14 18.252 35.132 18.012C35.124 17.772 35.116 17.484 35.108 17.148C35.1 16.804 35.088 16.456 35.072 16.104C35.064 15.744 35.056 15.416 35.048 15.12C35.04 14.816 35.032 14.584 35.024 14.424C35.024 14.304 34.992 14.244 34.928 14.244C34.88 14.244 34.836 14.276 34.796 14.34L31.364 20.988H31.004C30.78 20.444 30.544 19.88 30.296 19.296C30.048 18.704 29.8 18.116 29.552 17.532C29.312 16.948 29.076 16.4 28.844 15.888C28.62 15.376 28.412 14.928 28.22 14.544C28.172 14.464 28.128 14.424 28.088 14.424C28.048 14.424 28.004 14.552 27.956 14.808C27.908 15.064 27.856 15.4 27.8 15.816C27.752 16.232 27.704 16.684 27.656 17.172C27.608 17.66 27.56 18.144 27.512 18.624C27.472 19.096 27.436 19.52 27.404 19.896C27.38 20.264 27.36 20.54 27.344 20.724L26.444 21.036L26.36 21C26.592 19.824 26.808 18.644 27.008 17.46C27.216 16.276 27.4 15.092 27.56 13.908C27.568 13.884 27.572 13.86 27.572 13.836C27.572 13.812 27.572 13.788 27.572 13.764C27.572 13.652 27.544 13.556 27.488 13.476C27.432 13.388 27.348 13.328 27.236 13.296L26.42 13.068L26.444 12.804L26.528 12.72H28.64C28.864 13.36 29.128 14.044 29.432 14.772C29.736 15.5 30.06 16.24 30.404 16.992C30.756 17.736 31.096 18.464 31.424 19.176C31.44 19.2 31.46 19.236 31.484 19.284C31.508 19.324 31.532 19.344 31.556 19.344C31.62 19.344 31.668 19.308 31.7 19.236L35.012 12.72ZM39.355 17.184C39.355 16.408 39.447 15.748 39.631 15.204C39.815 14.652 40.127 14.136 40.567 13.656C40.823 13.384 41.123 13.172 41.467 13.02C41.811 12.868 42.175 12.76 42.559 12.696C42.951 12.632 43.331 12.6 43.699 12.6C44.147 12.6 44.595 12.672 45.043 12.816C45.491 12.952 45.875 13.184 46.195 13.512C46.443 13.76 46.639 14.06 46.783 14.412C46.935 14.756 47.043 15.12 47.107 15.504C47.171 15.88 47.203 16.256 47.203 16.632C47.203 17.024 47.179 17.424 47.131 17.832C47.091 18.24 46.951 18.688 46.711 19.176C46.519 19.568 46.227 19.92 45.835 20.232C45.443 20.536 44.979 20.776 44.443 20.952C43.915 21.128 43.335 21.216 42.703 21.216C42.087 21.216 41.563 21.1 41.131 20.868C40.707 20.636 40.363 20.328 40.099 19.944C39.843 19.552 39.655 19.12 39.535 18.648C39.415 18.168 39.355 17.68 39.355 17.184ZM40.471 16.824C40.471 17.384 40.535 17.92 40.663 18.432C40.799 18.936 41.051 19.392 41.419 19.8C41.779 20.2 42.131 20.456 42.475 20.568C42.819 20.672 43.107 20.724 43.339 20.724C43.835 20.724 44.255 20.616 44.599 20.4C44.951 20.176 45.235 19.884 45.451 19.524C45.667 19.156 45.823 18.752 45.919 18.312C46.023 17.864 46.075 17.416 46.075 16.968C46.075 16.544 46.023 16.104 45.919 15.648C45.823 15.192 45.667 14.772 45.451 14.388C45.235 13.996 44.951 13.68 44.599 13.44C44.247 13.2 43.819 13.08 43.315 13.08C42.795 13.08 42.355 13.188 41.995 13.404C41.635 13.62 41.343 13.908 41.119 14.268C40.895 14.628 40.731 15.032 40.627 15.48C40.523 15.92 40.471 16.368 40.471 16.824ZM56.3986 12.84L57.4306 12.636L57.5026 12.864C57.3106 13.104 57.1226 13.356 56.9386 13.62C56.7546 13.884 56.5866 14.14 56.4346 14.388C56.2826 14.628 56.1546 14.84 56.0506 15.024C55.9466 15.2 55.8746 15.32 55.8346 15.384C55.4026 16.184 54.9746 17.052 54.5506 17.988C54.1346 18.924 53.7546 19.888 53.4106 20.88L52.5946 21.192L52.4746 21.108L50.7586 15.324C50.6706 15.044 50.5826 14.768 50.4946 14.496C50.4066 14.224 50.3026 13.956 50.1826 13.692C50.0866 13.492 49.9546 13.364 49.7866 13.308C49.6266 13.244 49.3786 13.188 49.0426 13.14L49.0306 12.816L49.1146 12.744L51.2146 12.624C51.6866 14.928 52.3466 17.168 53.1946 19.344C53.2106 19.368 53.2266 19.388 53.2426 19.404C53.2666 19.412 53.2826 19.42 53.2906 19.428C53.3306 19.412 53.4186 19.256 53.5546 18.96C53.6986 18.664 53.8946 18.248 54.1426 17.712L55.5706 14.424C55.6826 14.152 55.8106 13.884 55.9546 13.62C56.0986 13.356 56.2466 13.096 56.3986 12.84ZM62.111 21.012H58.931V20.7C59.227 20.644 59.447 20.592 59.591 20.544C59.735 20.488 59.831 20.42 59.879 20.34C59.935 20.252 59.967 20.136 59.975 19.992C59.983 19.84 59.991 19.64 59.999 19.392V15.036C59.999 14.804 59.995 14.572 59.987 14.34C59.987 14.108 59.979 13.88 59.963 13.656C59.955 13.536 59.927 13.456 59.879 13.416C59.839 13.368 59.743 13.328 59.591 13.296C59.447 13.264 59.215 13.212 58.895 13.14V12.876L58.979 12.804H61.979L62.051 12.876V13.128L61.247 13.308C61.087 13.348 60.999 13.452 60.983 13.62C60.951 13.852 60.931 14.152 60.923 14.52C60.923 14.88 60.927 15.256 60.935 15.648C60.943 16.032 60.947 16.38 60.947 16.692C60.947 17.092 60.947 17.48 60.947 17.856C60.955 18.232 60.963 18.604 60.971 18.972C60.979 19.14 60.979 19.34 60.971 19.572C60.963 19.796 60.983 20 61.031 20.184C61.079 20.36 61.187 20.472 61.355 20.52C61.443 20.544 61.547 20.572 61.667 20.604C61.787 20.636 61.895 20.664 61.991 20.688C62.087 20.712 62.135 20.724 62.135 20.724L62.111 21.012ZM68.4503 16.968C68.2183 16.952 67.9823 16.936 67.7423 16.92C67.5023 16.904 67.2663 16.896 67.0343 16.896C66.8023 16.896 66.5663 16.896 66.3263 16.896C66.0863 16.896 65.8863 16.908 65.7263 16.932C65.5663 16.956 65.4863 17.004 65.4863 17.076V18.744C65.4863 18.968 65.4943 19.212 65.5103 19.476C65.5343 19.732 65.5863 19.936 65.6663 20.088C65.7543 20.24 65.8743 20.344 66.0263 20.4C66.1863 20.448 66.4503 20.472 66.8183 20.472C66.9623 20.472 67.0983 20.472 67.2263 20.472C67.3543 20.464 67.5103 20.456 67.6943 20.448C67.8783 20.44 68.1223 20.424 68.4263 20.4C68.7383 20.376 69.1383 20.344 69.6263 20.304L69.6863 20.364L69.5303 21H64.8743C64.7543 20.936 64.6703 20.828 64.6223 20.676C64.5823 20.524 64.5623 20.368 64.5623 20.208V14.304C64.5623 14.216 64.5583 14.096 64.5503 13.944C64.5423 13.792 64.5103 13.656 64.4543 13.536C64.4223 13.456 64.3303 13.384 64.1783 13.32C64.0343 13.248 63.8223 13.192 63.5423 13.152L63.5303 12.912L63.6143 12.828L65.3903 12.816C65.6703 12.816 65.9823 12.812 66.3263 12.804C66.6703 12.788 67.0143 12.776 67.3583 12.768C67.7023 12.752 68.0143 12.744 68.2943 12.744C68.4063 12.744 68.5063 12.744 68.5943 12.744C68.6823 12.744 68.7663 12.748 68.8463 12.756L68.8223 13.356L68.7743 13.44C68.5663 13.424 68.3223 13.412 68.0423 13.404C67.7703 13.388 67.5023 13.376 67.2383 13.368C66.9743 13.352 66.7503 13.34 66.5663 13.332C66.3903 13.324 66.2903 13.32 66.2663 13.32H65.7863C65.6663 13.344 65.5863 13.452 65.5463 13.644C65.5143 13.828 65.4983 14.024 65.4983 14.232V16.224C65.4983 16.328 65.5743 16.384 65.7263 16.392C65.8783 16.392 66.0663 16.392 66.2903 16.392C66.6103 16.392 66.9703 16.384 67.3703 16.368C67.7703 16.352 68.1303 16.332 68.4503 16.308L68.5223 16.392L68.4503 16.968Z" fill="black"/>
<path d="M36.9396 5.45459L68.1074 5.45459" stroke="black" stroke-width="2" stroke-linecap="square"/>
<path d="M2 25.1797H70.1074" stroke="black" stroke-width="2" stroke-linecap="square"/>
<path d="M101.584 48.2266C96.3373 48.2266 92.084 52.4799 92.084 57.7266C92.084 62.9733 96.3373 67.2266 101.584 67.2266V48.2266ZM161.611 67.2266H171.111V48.2266H161.611V67.2266ZM101.584 67.2266L161.611 67.2266V48.2266L101.584 48.2266V67.2266Z" fill="white"/>
<path d="M128.148 68.4452C128.7 68.453 129.155 68.0117 129.163 67.4595C129.172 66.9073 128.732 66.4533 128.179 66.4454L128.148 68.4452ZM97.0157 66.003L96.0158 65.9888L95.984 67.9885L96.9839 68.0027L97.0157 66.003ZM128.179 66.4454L97.0157 66.003L96.9839 68.0027L128.148 68.4452L128.179 66.4454Z" fill="black"/>
<path d="M170.073 48L98.0032 47.9965" stroke="black" stroke-width="2" stroke-linecap="square"/>
<path d="M108.029 57.4689L108.017 57.5649C108.897 57.678 109.504 57.8987 109.84 58.2271C110.176 58.5476 110.343 59.0038 110.342 59.5958C110.342 60.0598 110.245 60.4476 110.053 60.7594C109.86 61.0712 109.608 61.3189 109.296 61.5025C108.983 61.6861 108.639 61.8177 108.263 61.8972C107.887 61.9768 107.519 62.0163 107.159 62.0159C106.959 62.0156 106.723 62.0113 106.451 62.003C106.187 62.0027 105.927 62.0023 105.671 62.002C105.423 62.0017 105.211 62.0015 105.035 62.0013C104.867 61.993 104.783 61.9889 104.783 61.9889L104.771 61.8689C104.851 61.749 104.911 61.6731 104.951 61.6412C104.991 61.6012 105.015 61.5452 105.024 61.4732C105.04 61.4013 105.048 61.2533 105.048 61.0293L105.057 54.6693C105.057 54.5333 105.005 54.4292 104.901 54.3571C104.797 54.277 104.67 54.2168 104.518 54.1766C104.366 54.1364 104.214 54.0962 104.062 54.0561L104.074 53.8521L104.158 53.7682L107.122 53.7718C107.458 53.7722 107.79 53.7966 108.118 53.845C108.446 53.8854 108.742 53.9658 109.006 54.0861C109.27 54.1984 109.477 54.3587 109.629 54.5669C109.789 54.7751 109.868 55.0432 109.868 55.3712C109.867 55.7632 109.779 56.0911 109.603 56.3549C109.434 56.6106 109.21 56.8264 108.93 57.002C108.657 57.1777 108.357 57.3333 108.029 57.4689ZM106.037 57.3105C106.053 57.3665 106.093 57.4025 106.157 57.4186C106.229 57.4267 106.325 57.4308 106.445 57.431C106.869 57.4315 107.261 57.368 107.621 57.2404C107.99 57.1049 108.286 56.8932 108.51 56.6055C108.735 56.3178 108.847 55.9379 108.848 55.4659C108.848 55.1299 108.757 54.8738 108.573 54.6976C108.397 54.5214 108.161 54.4011 107.865 54.3367C107.577 54.2644 107.262 54.228 106.918 54.2276C106.83 54.2274 106.718 54.2313 106.581 54.2391C106.454 54.239 106.337 54.2548 106.233 54.2867C106.129 54.3106 106.065 54.3665 106.041 54.4545L106.037 57.3105ZM106.032 61.2105C106.032 61.3465 106.08 61.4345 106.176 61.4747C106.28 61.5148 106.531 61.5351 106.931 61.5356C107.339 61.5361 107.72 61.4645 108.072 61.321C108.424 61.1774 108.708 60.9578 108.925 60.662C109.141 60.3583 109.25 59.9744 109.25 59.5104C109.251 59.1504 109.179 58.8623 109.035 58.6462C108.892 58.43 108.7 58.2657 108.46 58.1535C108.228 58.0332 107.964 57.9528 107.668 57.9125C107.381 57.8721 107.085 57.8518 106.781 57.8514C106.565 57.8511 106.393 57.8509 106.265 57.8508C106.145 57.8506 106.068 57.8825 106.036 57.9465L106.032 61.2105ZM112.523 58.1944C112.524 57.4184 112.617 56.7585 112.802 56.2148C112.987 55.663 113.299 55.1474 113.74 54.6679C113.996 54.3962 114.297 54.1846 114.641 54.033C114.985 53.8814 115.349 53.7739 115.733 53.7104C116.125 53.6468 116.505 53.6153 116.873 53.6158C117.321 53.6163 117.769 53.6889 118.217 53.8334C118.665 53.97 119.049 54.2024 119.368 54.5308C119.616 54.7791 119.811 55.0794 119.955 55.4315C120.107 55.7757 120.214 56.1399 120.277 56.5239C120.341 56.9 120.372 57.2761 120.372 57.6521C120.371 58.0441 120.347 58.444 120.298 58.852C120.258 59.2599 120.117 59.7077 119.876 60.1955C119.684 60.5872 119.391 60.9389 118.999 61.2504C118.607 61.5539 118.142 61.7933 117.606 61.9687C117.078 62.144 116.498 62.2313 115.866 62.2305C115.25 62.2298 114.726 62.1131 114.294 61.8806C113.87 61.6481 113.527 61.3397 113.263 60.9553C113.008 60.563 112.821 60.1308 112.701 59.6587C112.582 59.1785 112.523 58.6904 112.523 58.1944ZM113.64 57.8358C113.639 58.3958 113.702 58.9319 113.829 59.444C113.965 59.9482 114.216 60.4045 114.584 60.813C114.943 61.2134 115.295 61.4698 115.639 61.5823C115.982 61.6867 116.27 61.739 116.502 61.7393C116.998 61.7399 117.418 61.6324 117.763 61.4169C118.115 61.1933 118.399 60.9016 118.616 60.5419C118.832 60.1742 118.989 59.7704 119.086 59.3305C119.19 58.8826 119.243 58.4347 119.243 57.9867C119.244 57.5627 119.193 57.1226 119.089 56.6665C118.994 56.2104 118.839 55.7902 118.623 55.4059C118.408 55.0136 118.124 54.6973 117.772 54.4569C117.421 54.2164 116.993 54.0959 116.489 54.0953C115.969 54.0947 115.529 54.2021 115.168 54.4177C114.808 54.6332 114.516 54.9209 114.291 55.2806C114.067 55.6403 113.902 56.0441 113.798 56.492C113.693 56.9319 113.64 57.3798 113.64 57.8358ZM122.691 58.2069C122.692 57.4309 122.785 56.771 122.97 56.2272C123.154 55.6755 123.467 55.1599 123.908 54.6804C124.164 54.4087 124.464 54.1971 124.809 54.0455C125.153 53.8939 125.517 53.7864 125.901 53.7228C126.293 53.6593 126.673 53.6278 127.041 53.6282C127.489 53.6288 127.937 53.7013 128.385 53.8459C128.833 53.9824 129.216 54.2149 129.536 54.5433C129.784 54.7916 129.979 55.0918 130.123 55.444C130.274 55.7882 130.382 56.1523 130.445 56.5364C130.509 56.9125 130.54 57.2885 130.54 57.6645C130.539 58.0565 130.515 58.4565 130.466 58.8644C130.425 59.2724 130.285 59.7202 130.044 60.2079C129.852 60.5997 129.559 60.9513 129.167 61.2628C128.774 61.5664 128.31 61.8058 127.774 61.9811C127.245 62.1565 126.665 62.2438 126.033 62.243C125.417 62.2423 124.893 62.1256 124.462 61.8931C124.038 61.6606 123.695 61.3521 123.431 60.9678C123.176 60.5755 122.988 60.1433 122.869 59.6711C122.749 59.191 122.69 58.7029 122.691 58.2069ZM123.807 57.8483C123.807 58.4083 123.87 58.9443 123.997 59.4565C124.132 59.9607 124.384 60.417 124.751 60.8254C125.111 61.2259 125.462 61.4823 125.806 61.5947C126.15 61.6991 126.438 61.7515 126.67 61.7518C127.166 61.7524 127.586 61.6449 127.93 61.4293C128.283 61.2058 128.567 60.9141 128.784 60.5544C129 60.1866 129.157 59.7828 129.253 59.343C129.358 58.8951 129.411 58.4471 129.411 57.9991C129.412 57.5751 129.36 57.1351 129.257 56.679C129.162 56.2228 129.006 55.8026 128.791 55.4184C128.575 55.0261 128.292 54.7098 127.94 54.4693C127.588 54.2289 127.16 54.1084 126.656 54.1078C126.136 54.1071 125.696 54.2146 125.336 54.4301C124.976 54.6457 124.683 54.9333 124.459 55.2931C124.234 55.6528 124.07 56.0566 123.965 56.5045C123.861 56.9443 123.808 57.3923 123.807 57.8483ZM134.503 58.2094L134.394 58.2213C134.394 58.8053 134.397 59.3933 134.404 59.9853C134.411 60.5693 134.43 61.1533 134.462 61.7373L133.489 62.0841L133.393 62.024L133.403 54.896C133.403 54.832 133.399 54.768 133.391 54.704C133.383 54.64 133.367 54.58 133.344 54.524C133.312 54.4519 133.224 54.3878 133.08 54.3316C132.944 54.2675 132.808 54.2193 132.672 54.1871C132.544 54.147 132.468 54.1269 132.444 54.1269L132.468 53.9229L132.565 53.839L134.461 53.8413L134.544 53.9254C134.504 54.0534 134.468 54.2653 134.436 54.5613C134.411 54.8493 134.391 55.2492 134.374 55.7612C134.365 56.2732 134.36 56.9332 134.359 57.7412L134.455 57.7533L137.905 53.8456L138.985 53.8469L138.972 53.9549L135.476 57.4786C135.459 57.4946 135.439 57.5185 135.415 57.5505C135.391 57.5745 135.379 57.5945 135.379 57.6105C135.379 57.6425 135.399 57.6785 135.439 57.7185C135.759 58.0389 136.11 58.3914 136.494 58.7758C136.877 59.1603 137.257 59.5408 137.632 59.9172C138.016 60.2857 138.363 60.6221 138.675 60.9265C138.994 61.2309 139.246 61.4632 139.43 61.6234L139.418 61.7554L138.397 62.1262C137.766 61.4534 137.119 60.7966 136.456 60.1558C135.801 59.515 135.15 58.8662 134.503 58.2094ZM144.071 62.0611L140.891 62.0572L140.891 61.7452C141.187 61.6896 141.407 61.6379 141.551 61.59C141.695 61.5342 141.791 61.4663 141.839 61.3864C141.896 61.2985 141.928 61.1825 141.936 61.0385C141.944 60.8865 141.952 60.6865 141.961 60.4385L141.967 56.0825C141.967 55.8505 141.963 55.6185 141.956 55.3865C141.956 55.1545 141.948 54.9265 141.933 54.7025C141.925 54.5825 141.897 54.5025 141.849 54.4624C141.809 54.4143 141.713 54.3742 141.561 54.342C141.417 54.3099 141.185 54.2576 140.865 54.1852L140.866 53.9212L140.95 53.8493L143.95 53.853L144.022 53.9251L144.021 54.1771L143.217 54.3561C143.057 54.3959 142.969 54.4998 142.953 54.6677C142.92 54.8997 142.9 55.1997 142.891 55.5677C142.891 55.9277 142.894 56.3037 142.902 56.6957C142.909 57.0797 142.913 57.4277 142.912 57.7397C142.912 58.1397 142.911 58.5277 142.911 58.9037C142.918 59.2797 142.926 59.6517 142.933 60.0197C142.941 60.1877 142.941 60.3877 142.932 60.6197C142.924 60.8437 142.944 61.0477 142.992 61.2318C143.039 61.4079 143.147 61.52 143.315 61.5682C143.403 61.5923 143.507 61.6204 143.627 61.6526C143.747 61.6847 143.855 61.7129 143.951 61.737C144.047 61.7611 144.095 61.7732 144.095 61.7732L144.071 62.0611ZM153.373 53.7325L153.445 53.8286C153.363 55.1885 153.309 56.5604 153.283 57.9444C153.266 59.3284 153.256 60.7004 153.254 62.0604L152.822 62.0599C152.686 61.8997 152.562 61.7555 152.45 61.6274C152.347 61.4993 152.203 61.3231 152.019 61.0989L150.114 58.7205C149.507 57.9598 148.96 57.2991 148.473 56.7385C147.994 56.1779 147.606 55.7295 147.311 55.3931C147.295 55.3691 147.275 55.345 147.251 55.321C147.227 55.297 147.203 55.285 147.179 55.2849C147.139 55.2849 147.115 55.3129 147.107 55.3688C147.099 55.4168 147.095 55.4568 147.095 55.4888C147.094 55.8728 147.102 56.3168 147.117 56.8209C147.132 57.3249 147.152 57.8569 147.175 58.4169C147.206 58.977 147.237 59.545 147.268 60.121C147.308 60.6891 147.343 61.2331 147.374 61.7532L146.534 62.1121L146.426 62.004C146.475 61.0521 146.512 60.1001 146.538 59.1481C146.571 58.1962 146.588 57.2482 146.59 56.3042C146.59 56.0482 146.586 55.7922 146.579 55.5362C146.579 55.2722 146.579 55.0122 146.58 54.7562C146.58 54.6682 146.572 54.6002 146.556 54.5522C146.548 54.5042 146.476 54.4521 146.34 54.3959C146.204 54.3397 145.944 54.2674 145.561 54.1789L145.513 53.8549L145.609 53.771L147.553 53.7734C147.952 54.3019 148.368 54.8504 148.799 55.4189C149.23 55.9874 149.661 56.552 150.093 57.1125C150.524 57.665 150.943 58.1895 151.35 58.686C151.758 59.1745 152.137 59.607 152.489 59.9834C152.505 59.9995 152.525 60.0195 152.549 60.0435C152.573 60.0675 152.597 60.0796 152.621 60.0796C152.653 60.0796 152.673 60.0677 152.681 60.0437C152.689 60.0117 152.693 59.9917 152.693 59.9837C152.693 59.6797 152.69 59.3637 152.682 59.0357C152.674 58.6997 152.659 58.3117 152.636 57.8716C152.62 57.4236 152.593 56.8836 152.554 56.2515C152.523 55.6115 152.476 54.8354 152.413 53.9233L153.373 53.7325ZM159.492 58.516L162.804 58.3881C162.812 58.6601 162.815 58.9841 162.815 59.3601C162.822 59.7281 162.83 60.0881 162.837 60.4401C162.845 60.7921 162.848 61.0881 162.848 61.3281C162.856 61.5602 162.859 61.6762 162.859 61.6762C162.507 61.7637 162.135 61.8553 161.743 61.9508C161.359 62.0463 160.983 62.1219 160.615 62.1774C160.255 62.241 159.927 62.2726 159.631 62.2722C159.175 62.2716 158.731 62.1911 158.299 62.0306C157.875 61.8701 157.499 61.6296 157.172 61.3092C156.764 60.9007 156.477 60.4203 156.31 59.8681C156.143 59.3079 156.059 58.7438 156.06 58.1758C156.061 57.5838 156.142 57.0039 156.303 56.4361C156.463 55.8603 156.752 55.3647 157.169 54.9492C157.617 54.5017 158.142 54.1784 158.742 53.9791C159.342 53.7798 159.958 53.6806 160.59 53.6814C161.11 53.682 161.578 53.7866 161.994 53.9951C162.41 54.2036 162.777 54.5521 163.097 55.0404L162.4 55.7236L162.256 55.7114C161.992 55.1831 161.681 54.8107 161.321 54.5943C160.961 54.3778 160.538 54.2693 160.05 54.2687C159.49 54.268 159.021 54.3755 158.645 54.591C158.269 54.7985 157.968 55.0822 157.744 55.4419C157.527 55.8016 157.371 56.2014 157.274 56.6413C157.186 57.0812 157.141 57.5291 157.14 57.9851C157.14 58.4251 157.203 58.8612 157.331 59.2934C157.458 59.7255 157.654 60.1218 157.917 60.4821C158.189 60.8344 158.536 61.1189 158.96 61.3354C159.384 61.5439 159.887 61.6485 160.471 61.6492C160.871 61.6497 161.247 61.6102 161.6 61.5306C161.704 61.5067 161.772 61.4348 161.804 61.3149C161.836 61.1869 161.848 61.0429 161.84 60.8829C161.841 60.7229 161.841 60.5829 161.841 60.4629C161.841 60.3989 161.845 60.2949 161.853 60.1509C161.862 59.9989 161.858 59.8349 161.842 59.6589C161.834 59.4829 161.803 59.3309 161.747 59.2028C161.699 59.0747 161.619 59.0066 161.507 58.9985C161.243 58.9742 160.935 58.9538 160.583 58.9374C160.231 58.9129 159.891 58.8965 159.563 58.8881L159.491 58.828L159.492 58.516Z" fill="black"/>
</svg>
